<svg xmlns="http://www.w3.org/2000/svg" width="600" height="760" viewBox="0 0 600 760"><defs/><rect width="600" height="760" fill="#fff"/><rect x="32" y="10" width="536" height="63" fill="#ffffff" stroke="#000000" stroke-width="1.6" pointer-events="none"/><g fill="#000000" font-family="Times New Roman" pointer-events="none" text-anchor="middle" font-size="16px"><text x="300" y="39">Registry-selected checkpoint + matching observation contract</text><text x="300" y="58">13 scaled measurements + availability + previous route (2)</text></g><rect x="25" y="115" width="240" height="60" fill="#ffffff" stroke="#000000" stroke-width="1.6" pointer-events="none"/><g fill="#000000" font-family="Times New Roman" pointer-events="none" text-anchor="middle" font-size="16px"><text x="145" y="142.5">Actor: 16 → 32 → 2</text><text x="145" y="161.5">Route probabilities</text></g><rect x="335" y="115" width="240" height="60" fill="#ffffff" stroke="#000000" stroke-width="1.6" pointer-events="none"/><g fill="#000000" font-family="Times New Roman" pointer-events="none" text-anchor="middle" font-size="16px"><text x="455" y="142.5">Critic: 16 → 32 → 1</text><text x="455" y="161.5">Estimated return</text></g><path d="M 144.56 73 L 144.88 103.61" fill="none" stroke="#000000" stroke-width="1.6" stroke-miterlimit="10" pointer-events="none"/><path d="M 144.98 113.21 L 140.08 103.66 L 149.68 103.56 Z" fill="#000000" stroke="#000000" stroke-width="1.6" stroke-miterlimit="10" pointer-events="none"/><path d="M 455.44 73 L 455.12 103.61" fill="none" stroke="#000000" stroke-width="1.6" stroke-miterlimit="10" pointer-events="none"/><path d="M 455.02 113.21 L 450.32 103.56 L 459.92 103.66 Z" fill="#000000" stroke="#000000" stroke-width="1.6" stroke-miterlimit="10" pointer-events="none"/><rect x="45" y="213" width="510" height="63" fill="#ffffff" stroke="#000000" stroke-width="1.6" pointer-events="none"/><g fill="#000000" font-family="Times New Roman" pointer-events="none" text-anchor="middle" font-size="16px"><text x="300" y="242">Candidate route + probabilities + return estimate</text><text x="300" y="261">Retain checkpoint, feature and observation identities</text></g><path d="M 145 175 L 146.4 201.63" fill="none" stroke="#000000" stroke-width="1.6" stroke-miterlimit="10" pointer-events="none"/><path d="M 146.91 211.21 L 141.61 201.88 L 151.19 201.37 Z" fill="#000000" stroke="#000000" stroke-width="1.6" stroke-miterlimit="10" pointer-events="none"/><path d="M 455 175 L 453.6 201.63" fill="none" stroke="#000000" stroke-width="1.6" stroke-miterlimit="10" pointer-events="none"/><path d="M 453.09 211.21 L 448.81 201.37 L 458.39 201.88 Z" fill="#000000" stroke="#000000" stroke-width="1.6" stroke-miterlimit="10" pointer-events="none"/><path d="M 300 303 L 365 338.5 L 300 374 L 235 338.5 Z" fill="#ffffff" stroke="#000000" stroke-width="1.6" stroke-miterlimit="10" pointer-events="none"/><g fill="#000000" font-family="Times New Roman" pointer-events="none" text-anchor="middle" font-size="16px"><text x="300" y="345.5">Live control?</text></g><rect x="8" y="311" width="177" height="56" fill="#ffffff" stroke="#000000" stroke-width="1.6" pointer-events="none"/><g fill="#000000" font-family="Times New Roman" pointer-events="none" text-anchor="middle" font-size="16px"><text x="96.5" y="336.5">Diagnostic replay</text><text x="96.5" y="355.5">Return outputs only</text></g><path d="M 300 276 L 300 291.61" fill="none" stroke="#000000" stroke-width="1.6" stroke-miterlimit="10" pointer-events="none"/><path d="M 300 301.21 L 295.2 291.61 L 304.8 291.61 Z" fill="#000000" stroke="#000000" stroke-width="1.6" stroke-miterlimit="10" pointer-events="none"/><path d="M 235 338.5 L 196.39 338.89" fill="none" stroke="#000000" stroke-width="1.6" stroke-miterlimit="10" pointer-events="none"/><path d="M 186.79 338.98 L 196.34 334.09 L 196.44 343.69 Z" fill="#000000" stroke="#000000" stroke-width="1.6" stroke-miterlimit="10" pointer-events="none"/><g fill="#000000" font-family="Times New Roman" pointer-events="none" text-anchor="middle" font-size="16px"><text x="210.5" y="327.5">[no]</text></g><rect x="38" y="415" width="524" height="79" fill="#ffffff" stroke="#000000" stroke-width="1.6" pointer-events="none"/><g fill="#000000" font-family="Times New Roman" pointer-events="none" text-anchor="middle" font-size="16px"><text x="300" y="442.5">Model and safety qualification</text><text x="300" y="461.5">Fresh compatible input; calibrated arrival/service bounds;</text><text x="300" y="480.5">valid routes and hold/rate limits</text></g><path d="M 300 374 L 300 403.61" fill="none" stroke="#000000" stroke-width="1.6" stroke-miterlimit="10" pointer-events="none"/><path d="M 300 413.21 L 295.2 403.61 L 304.8 403.61 Z" fill="#000000" stroke="#000000" stroke-width="1.6" stroke-miterlimit="10" pointer-events="none"/><g fill="#000000" font-family="Times New Roman" pointer-events="none" text-anchor="middle" font-size="16px"><text x="346" y="399.5">[yes]</text></g><rect x="38" y="532" width="524" height="79" fill="#ffffff" stroke="#000000" stroke-width="1.6" pointer-events="none"/><g fill="#000000" font-family="Times New Roman" pointer-events="none" text-anchor="middle" font-size="16px"><text x="300" y="559.5">Execution admission</text><text x="300" y="578.5">Current actor, mode, approval, control revision,</text><text x="300" y="597.5">emergency-stop state and authorized receiver</text></g><path d="M 300 494 L 300 520.61" fill="none" stroke="#000000" stroke-width="1.6" stroke-miterlimit="10" pointer-events="none"/><path d="M 300 530.21 L 295.2 520.61 L 304.8 520.61 Z" fill="#000000" stroke="#000000" stroke-width="1.6" stroke-miterlimit="10" pointer-events="none"/><path d="M 300 641 L 354 673.5 L 300 706 L 246 673.5 Z" fill="#ffffff" stroke="#000000" stroke-width="1.6" stroke-miterlimit="10" pointer-events="none"/><g fill="#000000" font-family="Times New Roman" pointer-events="none" text-anchor="middle" font-size="16px"><text x="300" y="680.5">All pass?</text></g><rect x="9" y="647" width="181" height="60" fill="#ffffff" stroke="#000000" stroke-width="1.6" pointer-events="none"/><g fill="#000000" font-family="Times New Roman" pointer-events="none" text-anchor="middle" font-size="16px"><text x="99.5" y="674.5">Deny dispatch;</text><text x="99.5" y="693.5">retain specific reasons</text></g><rect x="410" y="647" width="181" height="60" fill="#ffffff" stroke="#000000" stroke-width="1.6" pointer-events="none"/><g fill="#000000" font-family="Times New Roman" pointer-events="none" text-anchor="middle" font-size="16px"><text x="500.5" y="674.5">Request bounded</text><text x="500.5" y="693.5">execution handoff</text></g><path d="M 300 611 L 300 629.61" fill="none" stroke="#000000" stroke-width="1.6" stroke-miterlimit="10" pointer-events="none"/><path d="M 300 639.21 L 295.2 629.61 L 304.8 629.61 Z" fill="#000000" stroke="#000000" stroke-width="1.6" stroke-miterlimit="10" pointer-events="none"/><path d="M 246 673.5 L 201.37 676.29" fill="none" stroke="#000000" stroke-width="1.6" stroke-miterlimit="10" pointer-events="none"/><path d="M 191.79 676.89 L 201.07 671.5 L 201.67 681.08 Z" fill="#000000" stroke="#000000" stroke-width="1.6" stroke-miterlimit="10" pointer-events="none"/><path d="M 354 673.5 L 398.63 676.29" fill="none" stroke="#000000" stroke-width="1.6" stroke-miterlimit="10" pointer-events="none"/><path d="M 408.21 676.89 L 398.33 681.08 L 398.93 671.5 Z" fill="#000000" stroke="#000000" stroke-width="1.6" stroke-miterlimit="10" pointer-events="none"/><g fill="#000000" font-family="Times New Roman" pointer-events="none" text-anchor="middle" font-size="16px"><text x="217" y="660.5">[no]</text></g><g fill="#000000" font-family="Times New Roman" pointer-events="none" text-anchor="middle" font-size="16px"><text x="381.5" y="660.5">[yes]</text></g><g fill="#000000" font-family="Times New Roman" pointer-events="none" text-anchor="middle" font-size="16px"><text x="300" y="735.5">Diagnostic inference and required live-control integration remain distinct.</text><text x="300" y="754.5">Integrated autonomous acceptance is incomplete in the reported evaluation.</text></g></svg>