<svg xmlns="http://www.w3.org/2000/svg" width="600" height="760" viewBox="0 0 600 760"><defs/><rect width="600" height="760" fill="#fff"/><ellipse cx="228" cy="19" rx="9" ry="9" fill="#000000" stroke="#000000" stroke-width="1.6" pointer-events="none"/><rect x="87" y="44" width="284" height="58" rx="10.44" ry="10.44" fill="#ffffff" stroke="#000000" stroke-width="1.6" pointer-events="none"/><g fill="#000000" font-family="Times New Roman" pointer-events="none" text-anchor="middle" font-size="16px"><text x="229" y="70.5">Persist intent, supported plan</text><text x="229" y="89.5">and bound validation evidence</text></g><rect x="87" y="125" width="284" height="58" rx="10.44" ry="10.44" fill="#ffffff" stroke="#000000" stroke-width="1.6" pointer-events="none"/><g fill="#000000" font-family="Times New Roman" pointer-events="none" text-anchor="middle" font-size="16px"><text x="229" y="151.5">Record authorized approval</text><text x="229" y="170.5">and immutable execution identity</text></g><rect x="87" y="206" width="284" height="58" rx="10.44" ry="10.44" fill="#ffffff" stroke="#000000" stroke-width="1.6" pointer-events="none"/><g fill="#000000" font-family="Times New Roman" pointer-events="none" text-anchor="middle" font-size="16px"><text x="229" y="232.5">Recheck actor, membership, binding,</text><text x="229" y="251.5">freshness and required evidence</text></g><path d="M 229 287 L 293 322 L 229 357 L 165 322 Z" fill="#ffffff" stroke="#000000" stroke-width="1.6" stroke-miterlimit="10" pointer-events="none"/><g fill="#000000" font-family="Times New Roman" pointer-events="none" text-anchor="middle" font-size="16px"><text x="229" y="329">Checks pass?</text></g><rect x="407" y="290" width="176" height="64" rx="11.52" ry="11.52" fill="#ffffff" stroke="#000000" stroke-width="1.6" pointer-events="none"/><g fill="#000000" font-family="Times New Roman" pointer-events="none" text-anchor="middle" font-size="16px"><text x="495" y="319.5">Reject admission;</text><text x="495" y="338.5">do not dispatch</text></g><ellipse cx="493" cy="402" rx="13" ry="13" fill="#ffffff" stroke="#000000" stroke-width="1.6" pointer-events="none"/><ellipse cx="493" cy="402" rx="7" ry="7" fill="#000000" stroke="none" pointer-events="none"/><rect x="87" y="401" width="284" height="58" rx="10.44" ry="10.44" fill="#ffffff" stroke="#000000" stroke-width="1.6" pointer-events="none"/><g fill="#000000" font-family="Times New Roman" pointer-events="none" text-anchor="middle" font-size="16px"><text x="229" y="427.5">Dispatch bounded command</text><text x="229" y="446.5">through the execution mailbox</text></g><rect x="87" y="490" width="284" height="58" rx="10.44" ry="10.44" fill="#ffffff" stroke="#000000" stroke-width="1.6" pointer-events="none"/><g fill="#000000" font-family="Times New Roman" pointer-events="none" text-anchor="middle" font-size="16px"><text x="229" y="516.5">Match command result and</text><text x="229" y="535.5">verify configuration readback</text></g><path d="M 229 574 L 278 606 L 229 638 L 180 606 Z" fill="#ffffff" stroke="#000000" stroke-width="1.6" stroke-miterlimit="10" pointer-events="none"/><g fill="#000000" font-family="Times New Roman" pointer-events="none" text-anchor="middle" font-size="16px"><text x="229" y="613">Verified?</text></g><rect x="63" y="669" width="332" height="36" rx="6.48" ry="6.48" fill="#ffffff" stroke="#000000" stroke-width="1.6" pointer-events="none"/><g fill="#000000" font-family="Times New Roman" pointer-events="none" text-anchor="middle" font-size="16px"><text x="229" y="694">Record completion or verified non-mutation</text></g><rect x="343" y="590" width="242" height="62" rx="11.16" ry="11.16" fill="#ffffff" stroke="#000000" stroke-width="1.6" pointer-events="none"/><g fill="#000000" font-family="Times New Roman" pointer-events="none" text-anchor="middle" font-size="16px"><text x="464" y="618.5">Retain unresolved outcome</text><text x="464" y="637.5">and block conflicting dispatch</text></g><path d="M 228 28 L 228.78 40.43" fill="none" stroke="#000000" stroke-width="1.6" stroke-miterlimit="10" pointer-events="none"/><path d="M 223.5 32.93 L 228.89 42.21 L 233.08 32.33" fill="none" stroke="#000000" stroke-width="1.6" stroke-miterlimit="10" pointer-events="none"/><path d="M 229 102 L 229 121.42" fill="none" stroke="#000000" stroke-width="1.6" stroke-miterlimit="10" pointer-events="none"/><path d="M 224.2 113.61 L 229 123.21 L 233.8 113.61" fill="none" stroke="#000000" stroke-width="1.6" stroke-miterlimit="10" pointer-events="none"/><path d="M 229 183 L 229 202.42" fill="none" stroke="#000000" stroke-width="1.6" stroke-miterlimit="10" pointer-events="none"/><path d="M 224.2 194.61 L 229 204.21 L 233.8 194.61" fill="none" stroke="#000000" stroke-width="1.6" stroke-miterlimit="10" pointer-events="none"/><path d="M 229 264 L 229 283.42" fill="none" stroke="#000000" stroke-width="1.6" stroke-miterlimit="10" pointer-events="none"/><path d="M 224.2 275.61 L 229 285.21 L 233.8 275.61" fill="none" stroke="#000000" stroke-width="1.6" stroke-miterlimit="10" pointer-events="none"/><path d="M 229 357 L 229 397.42" fill="none" stroke="#000000" stroke-width="1.6" stroke-miterlimit="10" pointer-events="none"/><path d="M 224.2 389.61 L 229 399.21 L 233.8 389.61" fill="none" stroke="#000000" stroke-width="1.6" stroke-miterlimit="10" pointer-events="none"/><path d="M 229 459 L 229 486.42" fill="none" stroke="#000000" stroke-width="1.6" stroke-miterlimit="10" pointer-events="none"/><path d="M 224.2 478.61 L 229 488.21 L 233.8 478.61" fill="none" stroke="#000000" stroke-width="1.6" stroke-miterlimit="10" pointer-events="none"/><path d="M 229 548 L 229 570.42" fill="none" stroke="#000000" stroke-width="1.6" stroke-miterlimit="10" pointer-events="none"/><path d="M 224.2 562.61 L 229 572.21 L 233.8 562.61" fill="none" stroke="#000000" stroke-width="1.6" stroke-miterlimit="10" pointer-events="none"/><path d="M 293 322 L 403.42 322" fill="none" stroke="#000000" stroke-width="1.6" stroke-miterlimit="10" pointer-events="none"/><path d="M 395.61 326.8 L 405.21 322 L 395.61 317.2" fill="none" stroke="#000000" stroke-width="1.6" stroke-miterlimit="10" pointer-events="none"/><g fill="#000000" font-family="Times New Roman" pointer-events="none" text-anchor="middle" font-size="16px"><text x="344.5" y="310">[no]</text></g><path d="M 495 354 L 493.2 385.43" fill="none" stroke="#000000" stroke-width="1.6" stroke-miterlimit="10" pointer-events="none"/><path d="M 488.86 377.36 L 493.1 387.21 L 498.44 377.9" fill="none" stroke="#000000" stroke-width="1.6" stroke-miterlimit="10" pointer-events="none"/><g fill="#000000" font-family="Times New Roman" pointer-events="none" text-anchor="middle" font-size="16px"><text x="268.5" y="385">[yes]</text></g><path d="M 229 638 L 229 665.42" fill="none" stroke="#000000" stroke-width="1.6" stroke-miterlimit="10" pointer-events="none"/><path d="M 224.2 657.61 L 229 667.21 L 233.8 657.61" fill="none" stroke="#000000" stroke-width="1.6" stroke-miterlimit="10" pointer-events="none"/><g fill="#000000" font-family="Times New Roman" pointer-events="none" text-anchor="middle" font-size="16px"><text x="268" y="658">[yes]</text></g><path d="M 278 606 L 339.51 620.2" fill="none" stroke="#000000" stroke-width="1.6" stroke-miterlimit="10" pointer-events="none"/><path d="M 330.82 623.12 L 341.26 620.6 L 332.98 613.76" fill="none" stroke="#000000" stroke-width="1.6" stroke-miterlimit="10" pointer-events="none"/><g fill="#000000" font-family="Times New Roman" pointer-events="none" text-anchor="middle" font-size="16px"><text x="309.5" y="598">[no]</text></g><ellipse cx="229" cy="740" rx="13" ry="13" fill="#ffffff" stroke="#000000" stroke-width="1.6" pointer-events="none"/><ellipse cx="229" cy="740" rx="7" ry="7" fill="#000000" stroke="none" pointer-events="none"/><path d="M 229 705 L 229 723.42" fill="none" stroke="#000000" stroke-width="1.6" stroke-miterlimit="10" pointer-events="none"/><path d="M 224.2 715.61 L 229 725.21 L 233.8 715.61" fill="none" stroke="#000000" stroke-width="1.6" stroke-miterlimit="10" pointer-events="none"/><ellipse cx="464" cy="693" rx="13" ry="13" fill="#ffffff" stroke="#000000" stroke-width="1.6" pointer-events="none"/><ellipse cx="464" cy="693" rx="7" ry="7" fill="#000000" stroke="none" pointer-events="none"/><path d="M 464 652 L 464 676.42" fill="none" stroke="#000000" stroke-width="1.6" stroke-miterlimit="10" pointer-events="none"/><path d="M 459.2 668.61 L 464 678.21 L 468.8 668.61" fill="none" stroke="#000000" stroke-width="1.6" stroke-miterlimit="10" pointer-events="none"/></svg>